HIERARCHY
ROOT Hips
{
	OFFSET 0.00000 0.00000 0.00000
	CHANNELS 6 Xposition Yposition Zposition Zrotation Yrotation Xrotation 
	JOINT LHipJoint
	{
		OFFSET 0 0 0
		CHANNELS 3 Zrotation Yrotation Xrotation
		JOINT LeftUpLeg
		{
			OFFSET 2.36090 -1.39315 1.24752
			CHANNELS 3 Zrotation Yrotation Xrotation
			JOINT LeftLeg
			{
				OFFSET 2.06810 -5.68207 0.00000
				CHANNELS 3 Zrotation Yrotation Xrotation
				JOINT LeftFoot
				{
					OFFSET 2.46631 -6.77613 0.00000
					CHANNELS 3 Zrotation Yrotation Xrotation
					JOINT LeftToeBase
					{
						OFFSET 0.26031 -0.71520 1.99545
						CHANNELS 3 Zrotation Yrotation Xrotation
						End Site
						{
							OFFSET 0.00000 -0.00000 1.05957
						}
					}
				}
			}
		}
	}
	JOINT RHipJoint
	{
		OFFSET 0 0 0
		CHANNELS 3 Zrotation Yrotation Xrotation
		JOINT RightUpLeg
		{
			OFFSET -2.25243 -1.39315 1.24752
			CHANNELS 3 Zrotation Yrotation Xrotation
			JOINT RightLeg
			{
				OFFSET -2.17343 -5.97145 0.00000
				CHANNELS 3 Zrotation Yrotation Xrotation
				JOINT RightFoot
				{
					OFFSET -2.52372 -6.93386 0.00000
					CHANNELS 3 Zrotation Yrotation Xrotation
					JOINT RightToeBase
					{
						OFFSET -0.22538 -0.61923 2.11447
						CHANNELS 3 Zrotation Yrotation Xrotation
						End Site
						{
							OFFSET -0.00000 -0.00000 1.10506
						}
					}
				}
			}
		}
	}
	JOINT LowerBack
	{
		OFFSET 0 0 0
		CHANNELS 3 Zrotation Yrotation Xrotation
		JOINT Spine
		{
			OFFSET 0.01594 2.13103 0.08007
			CHANNELS 3 Zrotation Yrotation Xrotation
			JOINT Spine1
			{
				OFFSET 0.01393 2.09723 0.18338
				CHANNELS 3 Zrotation Yrotation Xrotation
				JOINT Neck
				{
					OFFSET 0 0 0
					CHANNELS 3 Zrotation Yrotation Xrotation
					JOINT Neck1
					{
						OFFSET 0.05351 1.38915 0.32494
						CHANNELS 3 Zrotation Yrotation Xrotation
						JOINT Head
						{
							OFFSET 0.00711 1.45992 -0.21666
							CHANNELS 3 Zrotation Yrotation Xrotation
							End Site
							{
								OFFSET -0.00433 1.47702 -0.11056
							}
						}
					}
				}
				JOINT LeftShoulder
				{
					OFFSET 0 0 0
					CHANNELS 3 Zrotation Yrotation Xrotation
					JOINT LeftArm
					{
						OFFSET 2.87198 0.92249 0.11132
						CHANNELS 3 Zrotation Yrotation Xrotation
						JOINT LeftForeArm
						{
							OFFSET 5.52731 -0.00000 0.00000
							CHANNELS 3 Zrotation Yrotation Xrotation
							JOINT LeftHand
							{
								OFFSET 3.11059 -0.00000 0.00000
								CHANNELS 3 Zrotation Yrotation Xrotation
								JOINT LeftFingerBase
								{
									OFFSET 0 0 0
									CHANNELS 3 Zrotation Yrotation Xrotation
									JOINT LeftHandIndex1
									{
										OFFSET 0.41963 -0.00000 0.00000
										CHANNELS 3 Zrotation Yrotation Xrotation
										End Site
										{
											OFFSET 0.33831 -0.00000 0.00000
										}
									}
								}
								JOINT LThumb
								{
									OFFSET 0 0 0
									CHANNELS 3 Zrotation Yrotation Xrotation
									End Site
									{
										OFFSET 0.34348 -0.00000 0.34348
									}
								}
							}
						}
					}
				}
				JOINT RightShoulder
				{
					OFFSET 0 0 0
					CHANNELS 3 Zrotation Yrotation Xrotation
					JOINT RightArm
					{
						OFFSET -2.94710 0.68072 0.32187
						CHANNELS 3 Zrotation Yrotation Xrotation
						JOINT RightForeArm
						{
							OFFSET -5.25396 -0.00000 -0.00000
							CHANNELS 3 Zrotation Yrotation Xrotation
							JOINT RightHand
							{
								OFFSET -3.10567 -0.00000 0.00000
								CHANNELS 3 Zrotation Yrotation Xrotation
								JOINT RightFingerBase
								{
									OFFSET 0 0 0
									CHANNELS 3 Zrotation Yrotation Xrotation
									JOINT RightHandIndex1
									{
										OFFSET -0.49868 -0.00000 0.00000
										CHANNELS 3 Zrotation Yrotation Xrotation
										End Site
										{
											OFFSET -0.40204 -0.00000 0.00000
										}
									}
								}
								JOINT RThumb
								{
									OFFSET 0 0 0
									CHANNELS 3 Zrotation Yrotation Xrotation
									End Site
									{
										OFFSET -0.40818 -0.00000 0.40818
									}
								}
							}
						}
					}
				}
			}
		}
	}
}
MOTION
Frames: 6
Frame Time: .0083333
7.4752 0.7272 26.5979 0 0 0 0 0 0 -21 0 0 0 0 0 0 0 0 0 0 0 0 0 0 21 0 0 0 0 0 0 0 0 0 0 0 0 0 0 0 0 0 0 0 0 0 0 -16 0 0 21 0 0 11 0 0 0 -8 0 0 0 0 0 0 0 0 0 0 0 0 0 0 0 0 0 0 0 0 8 0 0 0 0 0 0 0 0 0 0 0 0 0 0 0 0 0
7.4752 0.7272 26.5979 174.6040 -38.8672 79.3989 0.0000 0.0000 0.0000 -15.0474 -5.5159 23.8341 0.0000 0.0000 0.0000 3.0424 -6.7669 35.8154 0.0195 0.9010 2.4763 0.0000 0.0000 0.0000 -15.4295 2.5047 -67.3668 -36.4049 -11.6011 145.6649 -1.2093 11.2163 27.5859 -4.9172 -13.2899 40.4637 10.7407 0.4971 20.3692 -2.4501 2.7292 1.1554 -9.6698 0.7057 -9.5282 21.4322 20.3284 -12.0241 -21.5010 29.8451 19.5731 -5.6005 11.7503 15.7285 0.0000 0.0000 0.0000 -50.1743 8.7768 82.3310 20.4571 -31.1891 -5.7662 -0.0000 0.0000 -52.5781 1.8372 24.6312 0.7659 -7.1250 0.0000 -0.0000 -28.0714 52.3423 -5.4224 0.0000 0.0000 0.0000 72.3899 -17.4864 25.6112 -11.0873 18.4219 -1.8034 0.0000 0.0000 11.4813 -4.7124 -9.5778 0.7858 7.1250 -0.0000 -0.0000 19.1147 -38.8743 3.0153
7.4763 0.7258 26.6068 174.6800 -38.7545 79.2644 0.0000 0.0000 0.0000 -14.9724 -5.5705 23.9247 0.0000 -0.0000 -0.0000 3.0268 -6.7012 35.7013 0.0209 0.9339 2.5669 0.0000 0.0000 0.0000 -16.1553 1.3265 -67.2806 -36.4979 -11.4666 146.1298 -1.0726 12.2410 27.4802 -4.8260 -13.1852 40.0656 10.8420 0.4500 20.4319 -2.3610 2.7034 1.2033 -9.6215 0.6939 -9.5147 21.2886 20.3534 -12.0630 -21.5226 29.8997 19.5468 -5.5714 11.7521 15.7170 0.0000 -0.0000 0.0000 -50.3281 8.7261 82.2958 20.4411 -31.1701 -5.7579 -0.0000 0.0000 -52.5855 1.7451 24.6896 0.7291 -7.1250 0.0000 -0.0000 -28.1933 52.3780 -5.4750 0.0000 -0.0000 0.0000 72.2591 -17.4039 25.6293 -11.0624 18.3838 -1.7955 0.0000 0.0000 11.4559 -4.7146 -9.5981 0.7878 7.1250 -0.0000 -0.0000 19.1185 -38.8938 3.0063
7.4783 0.7253 26.6157 174.7700 -38.6397 79.1331 0.0000 0.0000 0.0000 -14.8896 -5.6400 24.0118 0.0000 0.0000 0.0000 3.0104 -6.6696 35.5995 0.0196 0.9047 2.4867 0.0000 0.0000 0.0000 -16.8741 0.1221 -67.0983 -36.5724 -11.3570 146.5063 -0.9456 13.1947 27.4291 -4.7577 -13.1057 39.7654 11.0299 0.4161 20.4606 -2.3583 2.6998 1.2661 -9.7261 0.6903 -9.4513 21.2856 20.3611 -12.1909 -21.5571 29.8992 19.5480 -5.5739 11.7386 15.7526 0.0000 -0.0000 0.0000 -50.2576 8.5770 82.4413 20.4716 -31.2064 -5.7737 -0.0000 0.0000 -52.6875 1.8621 24.6520 0.7769 -7.1250 0.0000 -0.0000 -28.0612 52.3649 -5.4364 0.0000 -0.0000 0.0000 72.3323 -17.3587 25.5002 -11.0587 18.3782 -1.7944 0.0000 0.0000 11.4818 -4.7504 -9.6358 0.7969 7.1250 -0.0000 -0.0000 19.0993 -38.9323 2.9840
7.4784 0.7243 26.6210 174.8860 -38.5651 78.9606 0.0000 0.0000 0.0000 -14.8600 -5.7165 24.1166 0.0000 -0.0000 -0.0000 3.0140 -6.6144 35.5914 0.0236 0.9915 2.7253 0.0000 0.0000 0.0000 -17.3907 -0.8225 -66.5738 -36.5991 -11.3174 146.6422 -0.8204 14.0112 27.2996 -4.7323 -13.0759 39.6531 11.1355 0.3698 20.5335 -2.3299 2.6702 1.3069 -9.7502 0.6732 -9.4489 21.2791 20.3627 -12.1503 -21.6471 29.9091 19.4607 -5.6058 11.7390 15.7296 -0.0000 -0.0000 0.0000 -50.2723 8.5080 82.4688 20.4781 -31.2141 -5.7771 -0.0000 0.0000 -52.6139 1.6844 24.6945 0.7039 -7.1250 0.0000 -0.0000 -28.2526 52.3719 -5.4838 -0.0000 -0.0000 0.0000 72.3214 -17.3584 25.4216 -11.0627 18.3843 -1.7956 0.0000 0.0000 11.5236 -4.7564 -9.6295 0.7974 7.1250 -0.0000 -0.0000 19.0926 -38.9267 2.9857
7.4790 0.7234 26.6273 174.9850 -38.4755 78.8069 0.0000 0.0000 0.0000 -14.8099 -5.7858 24.2149 0.0000 -0.0000 -0.0000 3.0108 -6.5619 35.5484 0.0262 1.0455 2.8740 0.0000 0.0000 0.0000 -18.0314 -1.8775 -66.1564 -36.6419 -11.2533 146.8611 -0.6795 14.9209 27.1852 -4.6821 -13.0166 39.4308 11.2595 0.3287 20.5923 -2.2992 2.6501 1.3542 -9.7835 0.6617 -9.4283 21.2585 20.3700 -12.1653 -21.7129 29.9234 19.4059 -5.6217 11.7365 15.7251 0.0000 -0.0000 0.0000 -50.2832 8.4197 82.5259 20.4891 -31.2271 -5.7828 -0.0000 0.0000 -52.6046 1.6076 24.7104 0.6722 -7.1250 0.0000 -0.0000 -28.3337 52.3728 -5.5023 0.0000 -0.0000 0.0000 72.3143 -17.3357 25.3486 -11.0598 18.3798 -1.7947 0.0000 0.0000 11.5466 -4.7715 -9.6394 0.8008 7.1250 -0.0000 -0.0000 19.0828 -38.9373 2.9788
